<svg width="600" height="360" viewBox="0 0 600 360" fill="none" xmlns="http://www.w3.org/2000/svg">
  <defs>
    <linearGradient id="a" x1="0" y1="0" x2="1" y2="1">
      <stop offset="0%" stop-color="#7F77DD"/>
      <stop offset="100%" stop-color="#D4537E"/>
    </linearGradient>
  </defs>
  <rect width="600" height="360" rx="24" fill="url(#a)"/>
  <g opacity="0.85">
    <rect x="42" y="50" width="150" height="80" rx="20" fill="#fff"/>
    <rect x="220" y="140" width="160" height="84" rx="20" fill="#fff"/>
    <rect x="410" y="230" width="150" height="80" rx="20" fill="#fff"/>
    <path d="M192 90C208 90 218 90 236 90" stroke="#fff" stroke-width="6" stroke-linecap="round"/>
    <path d="M220 175C230 170 248 155 270 142" stroke="#fff" stroke-width="6" stroke-linecap="round"/>
    <path d="M380 222C392 220 408 220 426 220" stroke="#fff" stroke-width="6" stroke-linecap="round"/>
    <circle cx="138" cy="90" r="16" fill="#fff"/>
    <circle cx="300" cy="178" r="16" fill="#fff"/>
    <circle cx="475" cy="260" r="16" fill="#fff"/>
  </g>
  <g fill="#534AB7" font-family="Segoe UI, Arial, sans-serif" font-size="18" font-weight="700" text-anchor="middle">
    <text x="117" y="87">Start</text>
    <text x="300" y="173">Automate</text>
    <text x="475" y="257">Review</text>
  </g>
</svg>